<?xml version="1.0" encoding="UTF-8"?>
<svg width="120px" height="30px" viewBox="0 0 120 30" version="1.1" xmlns="http://www.w3.org/2000/svg" xmlns:xlink="http://www.w3.org/1999/xlink">
    <title>Icons/Logos/Motus Logo</title>
    <g id="Icons" stroke="none" stroke-width="1" fill="none" fill-rule="evenodd">
        <g id="Modules/Header" transform="translate(-149.000000, -24.247621)" fill-rule="nonzero">
            <g id="Icons/Logos/Motus-Logo" transform="translate(149.604992, 24.333323)">
                <g id="g12" transform="translate(68.012642, 14.040999) scale(-1, 1) rotate(-180.000000) translate(-68.012642, -14.040999) translate(60.853087, -0.000000)" fill="#707272">
                    <polygon id="path14" points="4.29088878 28.0819993 4.29088878 21.9962217 0 21.9962217 0 16.236444 4.29088878 16.236444 4.29088878 0 10.0284442 0 10.0284442 16.236444 14.3191108 16.236444 14.3191108 21.9962217 10.0284442 21.9962217 10.0284442 28.0819993"></polygon>
                </g>
                <g id="g18" transform="translate(59.285498, 16.823232) scale(-1, 1) rotate(-180.000000) translate(-59.285498, -16.823232) translate(-0.025934, 4.660688)">
                    <g id="g24" transform="translate(0.000000, 0.904822)" fill="#707272">
                        <path d="M24.3337772,22.9444439 C21.4222217,22.9444439 18.9017773,21.7268883 17.2068885,19.772444 C15.6006663,21.7268883 13.1226663,22.9444439 10.0811109,22.9444439 C3.95377768,22.9444439 0,18.6413329 0,12.9497775 L0,0 L5.73533319,0 L5.73533319,13.0788886 C5.73533319,15.5995552 7.51777759,17.3373329 10.0811109,17.3373329 C13.8628885,17.3373329 14.2526663,14.339333 14.2526663,13.0788886 L14.2526663,0 L19.9879995,0 L19.9879995,13.0788886 C19.9879995,15.5995552 21.8144439,17.3373329 24.3337772,17.3373329 C28.1157771,17.3373329 28.5493326,14.339333 28.5493326,13.0788886 L28.5493326,0 L34.2844436,0 L34.2844436,12.9497775 C34.2844436,18.8153329 30.5924437,22.9444439 24.3337772,22.9444439" id="path26"></path>
                    </g>
                    <g id="g28" transform="translate(77.625754, 0.000178)" fill="#707272">
                        <path d="M14.2964441,9.8204442 C14.2964441,7.34355537 12.4724441,5.56222208 9.95288864,5.56222208 C6.16977762,5.56222208 5.73622208,8.56022201 5.73622208,9.8204442 L5.73622208,22.9004439 L0,22.9004439 L0,9.99333308 C0,4.12911101 3.69311102,0 9.95288864,0 C16.036444,0 20.0351106,4.30199989 20.0351106,9.99333308 L20.0351106,22.9004439 L14.2964441,22.9004439 L14.2964441,9.8204442 Z" id="path30"></path>
                    </g>
                    <g id="g32" transform="translate(98.744686, 0.000000)" fill="#707272">
                        <path d="M9.74066642,0 C6.56311095,0 3.0057777,1.05911108 0,3.43044436 L2.75199993,7.66599981 C5.20844431,5.88688874 7.79177758,4.95555543 9.91022197,4.95555543 C11.7737775,4.95555543 12.6217775,5.63177764 12.6217775,6.64955539 L12.6217775,6.73377761 C12.6217775,8.13222202 10.4191109,8.59733312 7.9199998,9.35999977 C4.7422221,10.2919997 1.14244442,11.7735553 1.14244442,16.1777774 L1.14244442,16.264444 C1.14244442,20.8797773 4.86933321,23.4653327 9.44422199,23.4653327 C12.3239997,23.4653327 15.4591107,22.491555 17.9166662,20.8382217 L15.4591107,16.3902218 C13.2148886,17.7042218 10.9695553,18.5097773 9.3173331,18.5097773 C7.74933314,18.5097773 6.94599983,17.8313329 6.94599983,16.9417774 L6.94599983,16.856444 C6.94599983,15.5871107 9.10711088,14.9928885 11.5626664,14.1459996 C14.7402219,13.0879997 18.424444,11.5648886 18.424444,7.41222204 L18.424444,7.32688871 C18.424444,2.28577772 14.6548885,0 9.74066642,0" id="path34"></path>
                    </g>
                    <g id="g36" transform="translate(56.326267, 18.557640)" fill="#FFFFFF">
                        <path d="M0.435242426,0.0620261531 C0.803686861,-0.0997516206 1.23390907,0.0653594864 1.39679796,0.436026144 C1.41813129,0.483359476 1.41813129,0.533803919 1.43057573,0.583137251 C1.19235352,0.882026133 0.940575747,1.17069279 0.673464642,1.44691501 C0.415020205,1.42669279 0.172353544,1.27847057 0.0623535467,1.0246928 C-0.100535338,0.655137249 0.066797991,0.223803927 0.435242426,0.0620261531" id="path38"></path>
                    </g>
                    <g id="g40" transform="translate(57.849830, 16.546318)" fill="#FFFFFF">
                        <path d="M0.628680039,0.0897483536 C0.89245781,-0.0282516434 1.17912447,-0.0249183102 1.42734669,0.070637243 C1.1464578,0.700859449 0.814013368,1.30285943 0.4242356,1.87797053 C0.287124492,1.77352609 0.164680051,1.64641498 0.0906800526,1.47685943 C-0.145319942,0.944637221 0.0951244969,0.325748348 0.628680039,0.0897483536" id="path42"></path>
                    </g>
                    <g id="g44" transform="translate(54.599984, 12.929926)" fill="#00AEEF">
                        <path d="M0.659769812,0.0937178634 C1.22243646,-0.15228213 1.87510311,0.102828974 2.12332533,0.662162294 C2.36932532,1.22149561 2.11554755,1.87527337 1.55376979,2.12216226 C0.993325359,2.36927336 0.339547597,2.11549559 0.0948809369,1.55616227 C-0.15245239,0.995717841 0.100436492,0.340828968 0.659769812,0.0937178634" id="path46"></path>
                    </g>
                    <g id="g48" transform="translate(54.897844, 20.286324)" fill="#00AEEF">
                        <path d="M0.299020502,0.0442355563 C0.55082314,-0.0698224213 0.84474803,0.0442355563 0.957849769,0.299585763 C1.06839159,0.550047771 0.954126255,0.846598513 0.701392739,0.95716492 C0.448426503,1.06912795 0.154268894,0.953673349 0.0437270703,0.703211341 C-0.0691419493,0.446697277 0.0437270703,0.153638106 0.299020502,0.0442355563" id="path50"></path>
                    </g>
                    <g id="g52" transform="translate(53.308995, 22.240252)" fill="#00AEEF">
                        <path d="M0.312865211,0.0591885059 C0.57396609,-0.094578534 0.874878391,0.0625605901 1,0.399769011 C0.689264102,0.597373146 0.394039148,0.815884202 0.0776159045,1 C0.0698604328,0.986511663 0.0517643323,0.983139579 0.040906672,0.958860573 C-0.0687039941,0.607489398 0.0486621437,0.212955546 0.312865211,0.0591885059" id="path54"></path>
                    </g>
                    <g id="g56" transform="translate(57.849830, 16.546718)" fill="#00AEEF">
                        <path d="M0.628680039,0.0893482948 C0.89245781,-0.0275405912 1.17912447,-0.025318369 1.42734669,0.0702371841 C1.1464578,0.69934828 0.814013368,1.30134826 0.4242356,1.87757047 C0.287124492,1.77068159 0.164680051,1.64601492 0.0906800526,1.47645937 C-0.145319942,0.944237162 0.0951244969,0.325348289 0.628680039,0.0893482948" id="path58"></path>
                    </g>
                    <g id="g60" transform="translate(56.325793, 18.557640)" fill="#00AEEF">
                        <path d="M0.435717005,0.0620261531 C0.80416144,-0.0997516206 1.23438365,0.0653594864 1.39727254,0.436026144 C1.41860587,0.483359476 1.41860587,0.533803919 1.43105031,0.583137251 C1.1928281,0.882026133 0.941050326,1.17069279 0.673939221,1.44802612 C0.415494783,1.42669279 0.172828123,1.27847057 0.0628281256,1.02358168 C-0.10117187,0.655137249 0.06727257,0.223803927 0.435717005,0.0620261531" id="path62"></path>
                    </g>
                    <g id="g64" transform="translate(56.338161, 14.789762)" fill="#00AEEF">
                        <path d="M0.090326342,1.47714909 C-0.145673652,0.943593553 0.0969930085,0.323593568 0.62943744,0.0900380185 C1.16299298,-0.144850864 1.78299297,0.095593574 2.01565963,0.628038005 C2.25254851,1.15937133 2.00988185,1.77937131 1.47854853,2.01514908 C0.947215209,2.25226019 0.323881892,2.00848242 0.090326342,1.47714909" id="path66"></path>
                    </g>
                    <g id="g68" transform="translate(54.720804, 16.485707)" fill="#00AEEF">
                        <path d="M0.519527523,0.0744035286 C0.959749734,-0.120040911 1.47308305,0.079959084 1.66752749,0.519070184 C1.85952749,0.959514618 1.65952749,1.47284794 1.22041639,1.66707016 C0.781305294,1.8615146 0.266860862,1.6615146 0.0746386449,1.22129239 C-0.119583572,0.780847955 0.0779719782,0.269736857 0.519527523,0.0744035286" id="path70"></path>
                    </g>
                    <g id="g72" transform="translate(53.174633, 18.604666)" fill="#00AEEF">
                        <path d="M0.317543543,0.0459337186 C0.588210203,-0.0731773896 0.90065464,0.0470448297 1.02176575,0.31771149 C1.14198797,0.586155927 1.01843241,0.899489253 0.748876866,1.01971147 C0.479321317,1.13771147 0.163765769,1.01748925 0.0457657721,0.747933701 C-0.073345336,0.478378152 0.0479879943,0.163933716 0.317543543,0.0459337186" id="path74"></path>
                    </g>
                    <g id="g76" transform="translate(50.045912, 18.525370)" fill="#00AEEF">
                        <path d="M0.300228339,0.0436588435 C0.54997063,-0.0689018935 0.844133486,0.0436588435 0.958639832,0.295439439 C1.06870412,0.555119034 0.951236404,0.846888313 0.699519867,0.956980613 C0.447309767,1.06904766 0.155614721,0.954512175 0.0411083742,0.702237892 C-0.0664881066,0.447988859 0.0430826215,0.155725893 0.300228339,0.0436588435" id="path78"></path>
                    </g>
                    <g id="g80" transform="translate(36.711151, 0.002680)" fill="#00AEEF">
                        <path d="M23.3840034,9.56134236 C23.5153367,10.2364535 23.5940034,10.9126757 23.6062256,11.5833423 C23.4951145,11.6933423 23.3671145,11.7864534 23.2188923,11.8528979 C22.8280034,12.0246756 22.4022256,11.9864534 22.0562256,11.7922312 C22.2337812,12.2651201 22.1226701,12.7817867 21.793559,13.1333423 C21.8182256,13.1208978 21.8384479,13.1051201 21.8608923,13.0951201 C22.4584479,12.8322312 23.1560034,13.1040089 23.4175589,13.6960089 C23.4277812,13.7173423 23.4300034,13.7386756 23.4380034,13.7622311 C23.3671145,14.1822311 23.2762256,14.6013422 23.1626701,15.0113422 C23.0615589,15.10912 22.9471145,15.1922311 22.8133367,15.2515644 C22.2180034,15.5146755 21.5217812,15.2448978 21.2611145,14.6484533 C21.0666701,14.2060089 21.165559,13.7117867 21.4700034,13.3782312 C21.4362257,13.3948978 21.4060034,13.4175645 21.3700034,13.4355645 C20.7117812,13.7240089 19.943559,13.4264534 19.6548924,12.7682312 C19.5277813,12.4817867 19.5188924,12.174009 19.5997813,11.8944534 C19.2382257,12.0191201 18.8595591,11.9797867 18.5440035,11.8066756 C18.6866702,12.3246756 18.4506702,12.8828978 17.9420035,13.1062312 C17.8722257,13.1366756 17.800448,13.1377867 17.728448,13.1535645 C17.8857813,12.4728978 17.928448,11.7628979 17.838448,11.052009 C17.7846702,10.6868979 17.7195591,10.3857868 17.6331146,10.0746757 C17.5588924,9.83089791 17.4768924,9.58845347 17.3702258,9.34800904 C17.3455591,9.29178681 17.3117813,9.24245348 17.2848924,9.18512015 C17.1826702,8.97400904 17.0726702,8.76734238 16.9488924,8.57067572 C16.8906702,8.4784535 16.8242258,8.3944535 16.7613369,8.30667573 C15.650448,6.7320091 13.8240036,5.70312024 11.7528926,5.72223135 C8.39222598,5.75023135 5.69089271,8.4964535 5.72111494,11.8573423 C5.75155938,15.2135644 8.5,17.9126755 11.857337,17.8846755 L11.9077814,23.6062309 C5.38978161,23.661342 0.0588928551,18.4237866 0.000448412096,11.9066756 C-0.0557738087,5.38734247 5.18200384,0.056675934 11.701337,0.000453713201 C16.2288925,-0.0388796191 20.1671146,2.48267587 22.1764479,6.21067578 C22.1800034,6.20734245 22.1822256,6.20623134 22.1833367,6.20512022 C22.2620034,6.35000911 22.3326701,6.502898 22.4077812,6.65334244 C22.4293367,6.69267577 22.4493367,6.73312021 22.4697812,6.77578688 C22.513559,6.86445354 22.5640034,6.94867576 22.6033367,7.04200909 C22.6797812,7.21378687 22.7437812,7.3891202 22.8077812,7.5642313 C22.8077812,7.56645352 22.8111145,7.56756464 22.8111145,7.57000908 C22.9335589,7.9013424 23.0460034,8.23600906 23.1435589,8.57289794 C22.8033367,8.65489794 22.4528923,8.59867572 22.1653367,8.42356461 C22.3011145,8.80423127 22.2517812,9.21312015 22.0517812,9.53889792 C22.0900034,9.51756459 22.1260034,9.49178681 22.1686701,9.47378681 C22.5764478,9.29178681 23.0324478,9.34134237 23.3840034,9.56134236 M19.7546701,9.3806757 C19.625559,9.08512015 19.6200035,8.76845349 19.7064479,8.48089795 C19.3986701,8.58756461 19.0753368,8.57289794 18.7933368,8.45489795 C18.8877813,8.81778683 18.8237813,9.19289793 18.6271146,9.49289792 C18.6337813,9.4906757 18.6393368,9.48512014 18.6451146,9.48378681 C19.0573368,9.30089793 19.5111146,9.35023126 19.8637812,9.5726757 C19.8244479,9.51200903 19.7862257,9.45023125 19.7546701,9.3806757 M21.4700034,10.0466757 C21.0588923,10.2275646 20.6051146,10.1791201 20.2513368,9.95667569 C20.2906701,10.0173424 20.3311146,10.0793424 20.3591146,10.1488979 C20.4860035,10.4353423 20.4951146,10.7442312 20.4142257,11.0237868 C20.7780034,10.8968979 21.1633368,10.9362312 21.4788923,11.1148979 C21.3340034,10.7284534 21.3824479,10.3115646 21.5877812,9.98045346 C21.547559,10.0028979 21.5126701,10.0286757 21.4700034,10.0466757" id="path82"></path>
                    </g>
                    <g id="g84" transform="translate(51.562055, 20.433283)" fill="#00AEEF">
                        <path d="M0.297759386,0.0436968923 C0.547107491,-0.0691011072 0.844350184,0.0436968923 0.956433392,0.298976575 C1.06901036,0.55376153 0.956433392,0.844166906 0.699185148,0.956470178 C0.449837042,1.06877345 0.153088108,0.956470178 0.0405111418,0.703664135 C-0.0666344799,0.44887918 0.0454487281,0.156494892 0.297759386,0.0436968923" id="path86"></path>
                    </g>
                    <g id="g88" transform="translate(52.978443, 14.708111)" fill="#00AEEF">
                        <path d="M1.57266663,0.5 C1.76577773,0.940222199 1.56933329,1.45355552 1.12799997,1.64688885 C0.697555538,1.83666662 0.203333328,1.6444444 0,1.22888886 C0.345999991,0.855999979 0.635999984,0.441555545 0.875111089,0 C1.17155553,0.0371111102 1.44466663,0.205777773 1.57266663,0.5" id="path90"></path>
                    </g>
                    <g id="g92" transform="translate(51.577510, 16.600577)" fill="#00AEEF">
                        <path d="M0.0447773645,0.833333312 C-0.0114448564,0.705333316 -0.0092226342,0.569333319 0.0212218095,0.444666656 C0.250332915,0.308888881 0.464777354,0.16044444 0.668110682,0 C0.872555122,0.0246666661 1.06011067,0.144666663 1.15011067,0.34688888 C1.28477733,0.652444428 1.14655511,1.00866664 0.842110678,1.14222219 C0.536777352,1.27711108 0.180555139,1.13888886 0.0447773645,0.833333312" id="path94"></path>
                    </g>
                    <g id="g96" transform="translate(116.904419, 22.606422)" fill="#707272">
                        <path d="M0.860222201,1.71866662 C1.00399997,1.71866662 1.1433333,1.68266662 1.28155552,1.60755552 C1.41977774,1.5333333 1.52644441,1.42888885 1.60288885,1.29066663 C1.68022218,1.1513333 1.7184444,1.00999997 1.7184444,0.859333312 C1.7184444,0.711111093 1.68022218,0.56844443 1.60511107,0.432444434 C1.52977774,0.295555548 1.42311108,0.188888884 1.28711108,0.114666664 C1.15022219,0.0382222213 1.00755553,0 0.860222201,0 C0.711999982,0 0.56844443,0.0382222213 0.432222211,0.114666664 C0.295333326,0.188888884 0.188666662,0.295555548 0.113555553,0.432444434 C0.0371111102,0.56844443 0,0.711111093 0,0.859333312 C0,1.00999997 0.0371111102,1.1513333 0.115555553,1.29066663 C0.190888884,1.42888885 0.298888881,1.5333333 0.436888878,1.60755552 C0.573999986,1.68266662 0.714444427,1.71866662 0.860222201,1.71866662 M0.860222201,1.57711107 C0.73888887,1.57711107 0.621111096,1.54688885 0.507555543,1.48488885 C0.39199999,1.42222219 0.303111104,1.33444441 0.237999994,1.21866664 C0.172888885,1.10422219 0.142666663,0.983999975 0.142666663,0.859333312 C0.142666663,0.735777759 0.172888885,0.616888873 0.236888883,0.50222221 C0.299999992,0.389777768 0.389777768,0.302222215 0.501999987,0.237111105 C0.616444429,0.175333329 0.735555537,0.142666663 0.860222201,0.142666663 C0.982888864,0.142666663 1.10177775,0.175333329 1.21644441,0.237111105 C1.32977774,0.302222215 1.41755552,0.389777768 1.48155552,0.50222221 C1.54444441,0.616888873 1.57577774,0.735777759 1.57577774,0.859333312 C1.57577774,0.983999975 1.54311107,1.10422219 1.48044441,1.21866664 C1.41511108,1.33444441 1.32644441,1.42222219 1.21066664,1.48488885 C1.09622219,1.54688885 0.98044442,1.57711107 0.860222201,1.57711107 M0.482888877,0.384222213 L0.482888877,1.30866663 L0.800666647,1.30866663 C0.909777755,1.30866663 0.987111086,1.30088886 1.03555553,1.28288886 C1.08511108,1.26599997 1.12333331,1.23555552 1.1513333,1.1953333 C1.18155553,1.1513333 1.19622219,1.10644442 1.19622219,1.05933331 C1.19622219,0.990888864 1.17044442,0.932222199 1.12333331,0.881777756 C1.07488886,0.832444424 1.01088886,0.804222202 0.929777755,0.797555536 C0.963777754,0.78399998 0.989555531,0.767333314 1.01088886,0.748222204 C1.04688886,0.712222204 1.09177775,0.651555539 1.14666664,0.566222208 L1.25911108,0.384222213 L1.0782222,0.384222213 L0.995111086,0.529111098 C0.929777755,0.644666651 0.8782222,0.715555538 0.837777757,0.74488887 C0.81199998,0.765999981 0.771777758,0.776222203 0.718666649,0.776222203 L0.631333318,0.776222203 L0.631333318,0.384222213 L0.482888877,0.384222213 Z M0.631333318,0.905333311 L0.814222202,0.905333311 C0.899777755,0.905333311 0.959111087,0.917777755 0.989555531,0.943555532 C1.0222222,0.969333309 1.03666664,1.00311109 1.03666664,1.04577775 C1.03666664,1.07266664 1.02999997,1.09755553 1.0142222,1.11999997 C0.998444419,1.1413333 0.978222198,1.15711108 0.95133331,1.16711108 C0.925555532,1.17822219 0.873999978,1.18399997 0.801777758,1.18399997 L0.631333318,1.18399997 L0.631333318,0.905333311 Z" id="path98"></path>
                    </g>
                </g>
            </g>
        </g>
    </g>
</svg>